<?xml version="1.0" encoding="UTF-8"?>
<!DOCTYPE svg PUBLIC "-//W3C//DTD SVG 1.1//EN" "http://www.w3.org/Graphics/SVG/1.1/DTD/svg11.dtd">
<svg xmlns="http://www.w3.org/2000/svg" version="1.1" width="1052px" height="301px" style="shape-rendering:geometricPrecision; text-rendering:geometricPrecision; image-rendering:optimizeQuality; fill-rule:evenodd; clip-rule:evenodd" xmlns:xlink="http://www.w3.org/1999/xlink">
<g><path style="opacity:1" fill="#fdfefe" d="M -0.5,-0.5 C 42.8333,-0.5 86.1667,-0.5 129.5,-0.5C 86.5013,25.0019 43.168,50.0019 -0.5,74.5C -0.5,49.5 -0.5,24.5 -0.5,-0.5 Z"/></g>
<g><path style="opacity:1" fill="#fefefe" d="M 131.5,-0.5 C 438.167,-0.5 744.833,-0.5 1051.5,-0.5C 1051.5,99.8333 1051.5,200.167 1051.5,300.5C 744.167,300.5 436.833,300.5 129.5,300.5C 172.301,275.263 215.301,250.263 258.5,225.5C 259.831,175.665 259.831,125.665 258.5,75.5C 257.482,74.8075 256.482,74.1408 255.5,73.5C 213.8,49.3221 172.467,24.6554 131.5,-0.5 Z"/></g>
<g><path style="opacity:1" fill="#132660" d="M 129.5,-0.5 C 130.167,-0.5 130.833,-0.5 131.5,-0.5C 172.467,24.6554 213.8,49.3221 255.5,73.5C 256.044,75.5795 256.878,77.5795 258,79.5C 258.5,128.166 258.667,176.832 258.5,225.5C 215.301,250.263 172.301,275.263 129.5,300.5C 128.833,300.5 128.167,300.5 127.5,300.5C 85.1715,274.666 42.5048,249.333 -0.5,224.5C -0.5,174.5 -0.5,124.5 -0.5,74.5C 43.168,50.0019 86.5013,25.0019 129.5,-0.5 Z"/></g>
<g><path style="opacity:1" fill="#fbfcfc" d="M 119.5,48.5 C 120.167,70.5 120.833,92.5 121.5,114.5C 126.167,114.5 130.833,114.5 135.5,114.5C 136.568,115.434 137.901,115.768 139.5,115.5C 139.169,92.6605 139.503,69.9939 140.5,47.5C 149.569,63.9688 158.902,80.3021 168.5,96.5C 173.867,93.8219 178.867,90.6552 183.5,87C 173.85,70.01 164.183,53.01 154.5,36C 180.644,50.4166 206.644,65.4166 232.5,81C 206.671,95.4138 181.004,110.08 155.5,125C 159.248,129.157 162.248,133.824 164.5,139C 167.947,138.288 171.281,136.955 174.5,135C 196.194,122.821 217.861,110.655 239.5,98.5C 240.833,127.167 240.833,155.833 239.5,184.5C 230.516,167.865 221.016,151.532 211,135.5C 205.494,137.823 200.661,140.99 196.5,145C 205.953,161.403 215.286,177.903 224.5,194.5C 223.21,195.408 221.877,195.241 220.5,194C 201.964,182.634 183.298,171.468 164.5,160.5C 161.842,166.162 159.008,171.495 156,176.5C 174.751,187.793 193.584,198.959 212.5,210C 194.17,210.5 175.836,210.667 157.5,210.5C 156.51,216.645 156.177,222.978 156.5,229.5C 175.674,229.17 194.674,229.503 213.5,230.5C 188.776,244.948 163.942,259.281 139,273.5C 138.5,244.169 138.333,214.835 138.5,185.5C 133.167,185.5 127.833,185.5 122.5,185.5C 121.791,184.596 120.791,184.263 119.5,184.5C 119.5,214.167 119.5,243.833 119.5,273.5C 95.002,259.419 70.6687,245.085 46.5,230.5C 64.9925,229.503 83.6592,229.17 102.5,229.5C 102.823,222.978 102.49,216.645 101.5,210.5C 80.9931,210.83 60.6598,210.497 40.5,209.5C 61.4043,198.378 82.071,186.711 102.5,174.5C 99.0035,169.699 96.0035,164.699 93.5,159.5C 74.4232,169.787 55.5899,180.454 37,191.5C 45.247,175.691 54.0804,160.024 63.5,144.5C 59.3426,140.529 54.5093,137.529 49,135.5C 38.9162,151.332 29.0829,167.332 19.5,183.5C 18.5019,154.338 18.1686,125.005 18.5,95.5C 43.3081,110.407 68.3081,125.074 93.5,139.5C 96.4388,134.477 99.7721,129.643 103.5,125C 78.1998,110.349 53.1998,95.1823 28.5,79.5C 54.4152,64.6262 80.2486,49.6262 106,34.5C 96.9523,52.1047 87.119,69.4381 76.5,86.5C 79.1085,89.1443 82.1085,91.311 85.5,93C 87.6498,94.5899 89.9832,95.2566 92.5,95C 101.89,79.7182 110.89,64.2182 119.5,48.5 Z"/></g>
<g><path style="opacity:1" fill="#12255f" d="M 879.5,58.5 C 898.853,57.3537 908.019,66.3537 907,85.5C 902.507,99.3379 893.007,104.838 878.5,102C 864.147,95.1219 859.98,84.2886 866,69.5C 869.336,64.2685 873.836,60.6018 879.5,58.5 Z"/></g>
<g><path style="opacity:1" fill="#fefef4" d="M 339.5,63.5 C 340.665,116.998 340.832,170.665 340,224.5C 338.837,200.312 338.337,175.978 338.5,151.5C 338.574,122.16 338.907,92.8268 339.5,63.5 Z"/></g>
<g><path style="opacity:1" fill="#9faac9" d="M 140.5,47.5 C 139.503,69.9939 139.169,92.6605 139.5,115.5C 137.901,115.768 136.568,115.434 135.5,114.5C 136.5,114.5 137.5,114.5 138.5,114.5C 138.333,91.4976 138.5,68.4976 139,45.5C 139.717,46.0442 140.217,46.7109 140.5,47.5 Z"/></g>
<g><path style="opacity:1" fill="#1b2858" d="M 378.5,163.5 C 377.668,131.669 377.168,99.6693 377,67.5C 375.057,67.0411 373.724,68.0411 373,70.5C 371.506,69.2528 370.006,69.2528 368.5,70.5C 369.902,71.8425 369.569,72.6758 367.5,73C 362.177,73.4994 356.844,73.666 351.5,73.5C 351.5,72.5 351.5,71.5 351.5,70.5C 356.833,70.5 362.167,70.5 367.5,70.5C 367.5,69.1667 367.5,67.8333 367.5,66.5C 360.865,66.0456 354.365,66.7123 348,68.5C 346.744,68.3517 345.577,68.0184 344.5,67.5C 343.883,67.3893 343.383,67.056 343,66.5C 342.5,123.166 342.333,179.832 342.5,236.5C 354.548,237.145 366.215,236.478 377.5,234.5C 377.167,216.821 377.5,199.154 378.5,181.5C 382.2,182.9 383.866,185.567 383.5,189.5C 382.512,188.205 381.512,186.872 380.5,185.5C 380.217,184.711 379.717,184.044 379,183.5C 378.5,201.83 378.333,220.164 378.5,238.5C 366.167,238.5 353.833,238.5 341.5,238.5C 341.5,180.5 341.5,122.5 341.5,64.5C 353.833,64.5 366.167,64.5 378.5,64.5C 378.5,97.5 378.5,130.5 378.5,163.5 Z"/></g>
<g><path style="opacity:1" fill="#122364" d="M 344.5,67.5 C 344.5,70.5 344.5,73.5 344.5,76.5C 345.833,76.5 347.167,76.5 348.5,76.5C 349.827,127.667 349.827,178.833 348.5,230C 348.988,231.584 349.988,232.751 351.5,233.5C 356.802,234.663 362.136,234.829 367.5,234C 368.025,233.308 368.692,232.808 369.5,232.5C 370.548,233.383 371.715,234.05 373,234.5C 374.563,233.278 376.063,233.278 377.5,234.5C 366.215,236.478 354.548,237.145 342.5,236.5C 342.333,179.832 342.5,123.166 343,66.5C 343.383,67.056 343.883,67.3893 344.5,67.5 Z"/></g>
<g><path style="opacity:1" fill="#0f265b" d="M 344.5,79.5 C 345.833,103.157 346.5,127.157 346.5,151.5C 346.167,175.5 345.833,199.5 345.5,223.5C 344.5,175.505 344.167,127.505 344.5,79.5 Z"/></g>
<g><path style="opacity:1" fill="#1a2857" d="M 968.5,163.5 C 967.668,132.003 967.168,100.336 967,68.5C 965.39,66.4689 963.557,66.4689 961.5,68.5C 958.289,67.3468 954.956,66.6802 951.5,66.5C 948.387,66.5623 945.554,67.2289 943,68.5C 942.692,67.6919 942.192,67.0253 941.5,66.5C 939.684,68.4414 937.684,69.1081 935.5,68.5C 934.833,67.8333 934.167,67.1667 933.5,66.5C 932.5,123.163 932.167,179.829 932.5,236.5C 943.854,236.66 955.187,236.326 966.5,235.5C 966.5,234.5 966.5,233.5 966.5,232.5C 964.139,232.326 961.806,231.993 959.5,231.5C 960.276,227.521 962.109,226.854 965,229.5C 965.772,229.355 966.439,229.022 967,228.5C 967.169,214.661 967.669,200.994 968.5,187.5C 968.5,204.5 968.5,221.5 968.5,238.5C 956.167,238.5 943.833,238.5 931.5,238.5C 931.5,180.5 931.5,122.5 931.5,64.5C 943.833,64.5 956.167,64.5 968.5,64.5C 968.5,97.5 968.5,130.5 968.5,163.5 Z"/></g>
<g><path style="opacity:1" fill="#112560" d="M 895.5,237.5 C 890.167,237.5 884.833,237.5 879.5,237.5C 875.979,236.834 872.313,236.167 868.5,235.5C 870.665,235.349 872.998,234.683 875.5,233.5C 882.141,234.796 888.807,234.796 895.5,233.5C 886.394,232.725 877.561,231.725 869,230.5C 868.667,203.167 868.333,175.833 868,148.5C 858.61,148.1 849.11,148.1 839.5,148.5C 831.1,148.484 822.934,147.817 815,146.5C 813.961,147.244 813.461,148.244 813.5,149.5C 813.17,165.675 813.504,181.675 814.5,197.5C 815.684,200.849 818.017,203.015 821.5,204C 827.491,204.499 833.491,204.666 839.5,204.5C 839.5,215.833 839.5,227.167 839.5,238.5C 830.201,239.585 820.868,239.752 811.5,239C 788.633,236.302 777.299,223.468 777.5,200.5C 778.523,183.513 778.69,166.513 778,149.5C 771.915,148.688 765.748,148.188 759.5,148C 764.758,146.67 770.091,145.336 775.5,144C 769.818,143.531 764.152,143.698 758.5,144.5C 758.5,134.833 758.5,125.167 758.5,115.5C 763.628,115.112 768.628,115.612 773.5,117C 768.623,117.365 763.957,118.365 759.5,120C 761.731,122.47 761.731,124.803 759.5,127C 760.473,132.407 760.807,137.907 760.5,143.5C 761.5,143.5 762.5,143.5 763.5,143.5C 763.17,136.8 763.503,130.134 764.5,123.5C 766.895,124.523 767.895,123.523 767.5,120.5C 770.219,120.397 772.885,120.731 775.5,121.5C 777.607,123.887 780.273,125.22 783.5,125.5C 783.5,123.833 783.5,122.167 783.5,120.5C 779.471,120.943 777.471,119.109 777.5,115C 778.428,114.612 779.095,113.945 779.5,113C 778.391,106.538 778.225,100.038 779,93.5C 780.049,91.8934 781.549,91.2267 783.5,91.5C 783.5,90.5 783.5,89.5 783.5,88.5C 789.954,89.3143 789.954,90.6476 783.5,92.5C 783.281,93.675 783.614,94.675 784.5,95.5C 789.207,94.3046 793.707,92.6379 798,90.5C 799.422,91.2052 800.755,91.5385 802,91.5C 802.333,99.5 802.667,107.5 803,115.5C 803.154,118.525 804.654,120.191 807.5,120.5C 805.983,108.883 804.983,97.2162 804.5,85.5C 805.32,83.8888 806.654,83.2222 808.5,83.5C 807.825,92.7616 807.992,102.095 809,111.5C 809.499,106.177 809.666,100.844 809.5,95.5C 810.5,95.5 811.5,95.5 812.5,95.5C 812.747,101.541 812.414,107.541 811.5,113.5C 811.853,115.731 812.686,117.731 814,119.5C 841.093,118.505 868.259,118.172 895.5,118.5C 895.5,119.5 895.5,120.5 895.5,121.5C 897.833,121.5 900.167,121.5 902.5,121.5C 902.5,155.5 902.5,189.5 902.5,223.5C 901.5,223.5 900.5,223.5 899.5,223.5C 899.667,190.832 899.5,158.165 899,125.5C 897.795,124.929 896.628,124.262 895.5,123.5C 868.842,122.5 842.175,122.167 815.5,122.5C 815.5,123.5 815.5,124.5 815.5,125.5C 842.658,124.854 869.658,125.521 896.5,127.5C 897.167,160.5 897.833,193.5 898.5,226.5C 899.428,224.665 900.594,224.332 902,225.5C 902.499,229.152 902.665,232.818 902.5,236.5C 899.941,236.198 897.607,236.532 895.5,237.5 Z"/></g>
<g><path style="opacity:1" fill="#354163" d="M 119.5,48.5 C 119.56,47.9569 119.893,47.6236 120.5,47.5C 121.5,69.8234 121.833,92.1567 121.5,114.5C 120.833,92.5 120.167,70.5 119.5,48.5 Z"/></g>
<g><path style="opacity:1" fill="#122560" d="M 557.5,114.5 C 569.5,114.5 581.5,114.5 593.5,114.5C 593.5,155.5 593.5,196.5 593.5,237.5C 581.5,237.5 569.5,237.5 557.5,237.5C 557.665,233.818 557.499,230.152 557,226.5C 548.98,234.927 539.146,239.76 527.5,241C 495.567,242.279 474.4,227.779 464,197.5C 456.613,172.812 460.946,150.479 477,130.5C 497.779,108.945 521.612,104.778 548.5,118C 551.63,120.128 554.463,122.628 557,125.5C 557.499,121.848 557.665,118.182 557.5,114.5 Z"/></g>
<g><path style="opacity:1" fill="#11255f" d="M 740.5,154.5 C 740.5,182.167 740.5,209.833 740.5,237.5C 728.5,237.5 716.5,237.5 704.5,237.5C 704.831,213.328 704.498,189.328 703.5,165.5C 702.446,152.368 695.28,145.368 682,144.5C 668.991,145.011 661.491,151.678 659.5,164.5C 658.502,188.661 658.169,212.994 658.5,237.5C 646.5,237.5 634.5,237.5 622.5,237.5C 622.5,196.5 622.5,155.5 622.5,114.5C 634.5,114.5 646.5,114.5 658.5,114.5C 658.163,118.621 658.496,121.955 659.5,124.5C 673.18,111.892 689.18,107.725 707.5,112C 727.494,119.144 738.494,133.31 740.5,154.5 Z"/></g>
<g><path style="opacity:1" fill="#8590af" d="M 621.5,114.5 C 633.989,113.505 646.656,113.171 659.5,113.5C 659.5,117.167 659.5,120.833 659.5,124.5C 658.496,121.955 658.163,118.621 658.5,114.5C 646.5,114.5 634.5,114.5 622.5,114.5C 622.167,114.5 621.833,114.5 621.5,114.5 Z"/></g>
<g><path style="opacity:1" fill="#8791b0" d="M 1005.5,114.5 C 1020.01,113.174 1034.67,113.174 1049.5,114.5C 1049.38,115.107 1049.04,115.44 1048.5,115.5C 1034.34,114.504 1020.01,114.171 1005.5,114.5 Z"/></g>
<g><path style="opacity:1" fill="#15265a" d="M 783.5,88.5 C 783.5,89.5 783.5,90.5 783.5,91.5C 781.549,91.2267 780.049,91.8934 779,93.5C 778.225,100.038 778.391,106.538 779.5,113C 779.095,113.945 778.428,114.612 777.5,115C 777.471,119.109 779.471,120.943 783.5,120.5C 783.5,122.167 783.5,123.833 783.5,125.5C 780.273,125.22 777.607,123.887 775.5,121.5C 772.885,120.731 770.219,120.397 767.5,120.5C 767.895,123.523 766.895,124.523 764.5,123.5C 763.503,130.134 763.17,136.8 763.5,143.5C 762.5,143.5 761.5,143.5 760.5,143.5C 760.807,137.907 760.473,132.407 759.5,127C 761.731,124.803 761.731,122.47 759.5,120C 763.957,118.365 768.623,117.365 773.5,117C 768.628,115.612 763.628,115.112 758.5,115.5C 758.5,125.167 758.5,134.833 758.5,144.5C 764.152,143.698 769.818,143.531 775.5,144C 770.091,145.336 764.758,146.67 759.5,148C 765.748,148.188 771.915,148.688 778,149.5C 778.69,166.513 778.523,183.513 777.5,200.5C 776.503,183.675 776.17,166.675 776.5,149.5C 770.167,149.5 763.833,149.5 757.5,149.5C 757.5,137.833 757.5,126.167 757.5,114.5C 764.022,114.823 770.355,114.49 776.5,113.5C 776.5,105.5 776.5,97.5 776.5,89.5C 778.861,89.3259 781.194,88.9926 783.5,88.5 Z"/></g>
<g><path style="opacity:1" fill="#4b5480" d="M 255.5,73.5 C 256.482,74.1408 257.482,74.8075 258.5,75.5C 259.831,125.665 259.831,175.665 258.5,225.5C 258.667,176.832 258.5,128.166 258,79.5C 256.878,77.5795 256.044,75.5795 255.5,73.5 Z"/></g>
<g><path style="opacity:1" fill="#11265c" d="M 813.5,79.5 C 813.5,91.1667 813.5,102.833 813.5,114.5C 843.5,114.5 873.5,114.5 903.5,114.5C 903.5,155.5 903.5,196.5 903.5,237.5C 900.833,237.5 898.167,237.5 895.5,237.5C 897.607,236.532 899.941,236.198 902.5,236.5C 902.665,232.818 902.499,229.152 902,225.5C 900.594,224.332 899.428,224.665 898.5,226.5C 897.833,193.5 897.167,160.5 896.5,127.5C 869.658,125.521 842.658,124.854 815.5,125.5C 815.5,124.5 815.5,123.5 815.5,122.5C 842.175,122.167 868.842,122.5 895.5,123.5C 896.628,124.262 897.795,124.929 899,125.5C 899.5,158.165 899.667,190.832 899.5,223.5C 900.5,223.5 901.5,223.5 902.5,223.5C 902.5,189.5 902.5,155.5 902.5,121.5C 900.167,121.5 897.833,121.5 895.5,121.5C 895.5,120.5 895.5,119.5 895.5,118.5C 868.259,118.172 841.093,118.505 814,119.5C 812.686,117.731 811.853,115.731 811.5,113.5C 812.414,107.541 812.747,101.541 812.5,95.5C 811.5,95.5 810.5,95.5 809.5,95.5C 809.666,100.844 809.499,106.177 809,111.5C 807.992,102.095 807.825,92.7616 808.5,83.5C 806.654,83.2222 805.32,83.8888 804.5,85.5C 804.983,97.2162 805.983,108.883 807.5,120.5C 804.654,120.191 803.154,118.525 803,115.5C 802.667,107.5 802.333,99.5 802,91.5C 800.755,91.5385 799.422,91.2052 798,90.5C 793.707,92.6379 789.207,94.3046 784.5,95.5C 783.614,94.675 783.281,93.675 783.5,92.5C 789.954,90.6476 789.954,89.3143 783.5,88.5C 793.286,85.1301 803.286,82.1301 813.5,79.5 Z"/></g>
<g><path style="opacity:1" fill="#505b7d" d="M 776.5,113.5 C 770.355,114.49 764.022,114.823 757.5,114.5C 757.5,126.167 757.5,137.833 757.5,149.5C 756.505,137.678 756.172,125.678 756.5,113.5C 763.167,113.5 769.833,113.5 776.5,113.5 Z"/></g>
<g><path style="opacity:1" fill="#0e2857" d="M 255.5,79.5 C 256.664,116.664 256.831,153.998 256,191.5C 255.805,162.319 255.305,133.152 254.5,104C 255.388,95.8591 255.721,87.6925 255.5,79.5 Z"/></g>
<g><path style="opacity:1" fill="#122560" d="M 378.5,163.5 C 378.008,167.29 378.841,167.956 381,165.5C 392.376,148.58 403.876,131.747 415.5,115C 429.833,114.333 444.167,114.333 458.5,115C 443.833,135.333 429.167,155.667 414.5,176C 429.833,196.667 445.167,217.333 460.5,238C 446.5,238.667 432.5,238.667 418.5,238C 406.456,222.069 394.79,205.902 383.5,189.5C 383.866,185.567 382.2,182.9 378.5,181.5C 377.5,199.154 377.167,216.821 377.5,234.5C 376.063,233.278 374.563,233.278 373,234.5C 371.715,234.05 370.548,233.383 369.5,232.5C 368.692,232.808 368.025,233.308 367.5,234C 362.136,234.829 356.802,234.663 351.5,233.5C 349.988,232.751 348.988,231.584 348.5,230C 349.827,178.833 349.827,127.667 348.5,76.5C 347.167,76.5 345.833,76.5 344.5,76.5C 344.5,73.5 344.5,70.5 344.5,67.5C 345.577,68.0184 346.744,68.3517 348,68.5C 354.365,66.7123 360.865,66.0456 367.5,66.5C 367.5,67.8333 367.5,69.1667 367.5,70.5C 362.167,70.5 356.833,70.5 351.5,70.5C 351.5,71.5 351.5,72.5 351.5,73.5C 356.844,73.666 362.177,73.4994 367.5,73C 369.569,72.6758 369.902,71.8425 368.5,70.5C 370.006,69.2528 371.506,69.2528 373,70.5C 373.724,68.0411 375.057,67.0411 377,67.5C 377.168,99.6693 377.668,131.669 378.5,163.5 Z"/></g>
<g><path style="opacity:1" fill="#3d496c" d="M 557.5,114.5 C 569.655,113.505 581.989,113.171 594.5,113.5C 594.5,155.167 594.5,196.833 594.5,238.5C 581.989,238.829 569.655,238.495 557.5,237.5C 569.5,237.5 581.5,237.5 593.5,237.5C 593.5,196.5 593.5,155.5 593.5,114.5C 581.5,114.5 569.5,114.5 557.5,114.5 Z"/></g>
<g><path style="opacity:1" fill="#808aa5" d="M 813.5,79.5 C 814.495,90.6544 814.828,101.988 814.5,113.5C 844.5,113.5 874.5,113.5 904.5,113.5C 904.832,155.337 904.499,197.003 903.5,238.5C 903.5,238.167 903.5,237.833 903.5,237.5C 903.5,196.5 903.5,155.5 903.5,114.5C 873.5,114.5 843.5,114.5 813.5,114.5C 813.5,102.833 813.5,91.1667 813.5,79.5 Z"/></g>
<g><path style="opacity:1" fill="#c93436" d="M 142.5,132.5 C 135.386,129.562 128.052,128.895 120.5,130.5C 128.168,126.239 135.502,126.906 142.5,132.5 Z"/></g>
<g><path style="opacity:1" fill="#122560" d="M 968.5,163.5 C 968.008,167.29 968.841,167.956 971,165.5C 982.51,148.471 994.01,131.471 1005.5,114.5C 1020.01,114.171 1034.34,114.504 1048.5,115.5C 1033.73,135.528 1019.06,155.695 1004.5,176C 1019.82,196.656 1035.15,217.323 1050.5,238C 1036.5,238.667 1022.5,238.667 1008.5,238C 995.615,220.622 982.948,203.122 970.5,185.5C 970.217,184.711 969.717,184.044 969,183.5C 968.51,184.793 968.343,186.127 968.5,187.5C 967.669,200.994 967.169,214.661 967,228.5C 966.439,229.022 965.772,229.355 965,229.5C 962.109,226.854 960.276,227.521 959.5,231.5C 961.806,231.993 964.139,232.326 966.5,232.5C 966.5,233.5 966.5,234.5 966.5,235.5C 955.187,236.326 943.854,236.66 932.5,236.5C 932.167,179.829 932.5,123.163 933.5,66.5C 934.167,67.1667 934.833,67.8333 935.5,68.5C 937.684,69.1081 939.684,68.4414 941.5,66.5C 942.192,67.0253 942.692,67.6919 943,68.5C 945.554,67.2289 948.387,66.5623 951.5,66.5C 954.956,66.6802 958.289,67.3468 961.5,68.5C 963.557,66.4689 965.39,66.4689 967,68.5C 967.168,100.336 967.668,132.003 968.5,163.5 Z"/></g>
<g><path style="opacity:1" fill="#d5030d" d="M 142.5,132.5 C 150.658,138.506 153.491,146.506 151,156.5C 149.974,159.239 148.474,161.572 146.5,163.5C 145.25,163.423 144.417,162.756 144,161.5C 143.51,162.793 143.343,164.127 143.5,165.5C 142.167,165.5 140.833,165.5 139.5,165.5C 139.5,166.5 139.5,167.5 139.5,168.5C 138.178,168.67 137.011,168.337 136,167.5C 135.517,168.448 135.351,169.448 135.5,170.5C 131.486,170.666 127.486,170.499 123.5,170C 119.798,168.789 116.465,166.956 113.5,164.5C 111.457,163.421 110.124,161.754 109.5,159.5C 108.806,154.195 108.472,148.862 108.5,143.5C 110.434,137.233 114.434,132.9 120.5,130.5C 128.052,128.895 135.386,129.562 142.5,132.5 Z"/></g>
<g><path style="opacity:1" fill="#fbfcfc" d="M 520.5,145.5 C 547.715,145.214 559.548,158.547 556,185.5C 551.324,199.668 541.49,206.668 526.5,206.5C 512.581,205.75 503.414,198.75 499,185.5C 494.992,165.834 502.159,152.5 520.5,145.5 Z"/></g>
<g><path style="opacity:1" fill="#c22c2e" d="M 108.5,143.5 C 108.472,148.862 108.806,154.195 109.5,159.5C 107.994,156.644 107.328,153.477 107.5,150C 107.504,147.639 107.837,145.473 108.5,143.5 Z"/></g>
<g><path style="opacity:1" fill="#878fab" d="M 239.5,98.5 C 239.56,97.9569 239.893,97.6236 240.5,97.5C 241.667,127.161 241.833,156.828 241,186.5C 240.283,185.956 239.783,185.289 239.5,184.5C 240.833,155.833 240.833,127.167 239.5,98.5 Z"/></g>
<g><path style="opacity:1" fill="#586488" d="M 621.5,114.5 C 621.833,114.5 622.167,114.5 622.5,114.5C 622.5,155.5 622.5,196.5 622.5,237.5C 634.5,237.5 646.5,237.5 658.5,237.5C 658.169,212.994 658.502,188.661 659.5,164.5C 659.5,189.167 659.5,213.833 659.5,238.5C 646.833,238.5 634.167,238.5 621.5,238.5C 621.5,197.167 621.5,155.833 621.5,114.5 Z"/></g>
<g><path style="opacity:1" fill="#b5bcd2" d="M 813.5,149.5 C 831.167,149.5 848.833,149.5 866.5,149.5C 866.5,149.833 866.5,150.167 866.5,150.5C 849.167,150.5 831.833,150.5 814.5,150.5C 814.5,166.167 814.5,181.833 814.5,197.5C 813.504,181.675 813.17,165.675 813.5,149.5 Z"/></g>
<g><path style="opacity:1" fill="#5b6489" d="M 866.5,149.5 C 867.498,178.662 867.831,207.995 867.5,237.5C 871.5,237.5 875.5,237.5 879.5,237.5C 884.833,237.5 890.167,237.5 895.5,237.5C 898.167,237.5 900.833,237.5 903.5,237.5C 903.5,237.833 903.5,238.167 903.5,238.5C 891.167,238.5 878.833,238.5 866.5,238.5C 866.5,209.167 866.5,179.833 866.5,150.5C 866.5,150.167 866.5,149.833 866.5,149.5 Z"/></g>
<g><path style="opacity:1" fill="#132558" d="M 879.5,237.5 C 875.5,237.5 871.5,237.5 867.5,237.5C 867.831,207.995 867.498,178.662 866.5,149.5C 848.833,149.5 831.167,149.5 813.5,149.5C 813.461,148.244 813.961,147.244 815,146.5C 822.934,147.817 831.1,148.484 839.5,148.5C 849.11,148.1 858.61,148.1 868,148.5C 868.333,175.833 868.667,203.167 869,230.5C 877.561,231.725 886.394,232.725 895.5,233.5C 888.807,234.796 882.141,234.796 875.5,233.5C 872.998,234.683 870.665,235.349 868.5,235.5C 872.313,236.167 875.979,236.834 879.5,237.5 Z"/></g>
<g><path style="opacity:1" fill="#cc2d2d" d="M 146.5,163.5 C 139.162,172.331 130.162,174.498 119.5,170C 117.004,168.669 115.004,166.836 113.5,164.5C 116.465,166.956 119.798,168.789 123.5,170C 127.486,170.499 131.486,170.666 135.5,170.5C 135.351,169.448 135.517,168.448 136,167.5C 137.011,168.337 138.178,168.67 139.5,168.5C 139.5,167.5 139.5,166.5 139.5,165.5C 140.833,165.5 142.167,165.5 143.5,165.5C 143.343,164.127 143.51,162.793 144,161.5C 144.417,162.756 145.25,163.423 146.5,163.5 Z"/></g>
<g><path style="opacity:1" fill="#5a6a93" d="M 740.5,154.5 C 741.498,182.328 741.831,210.328 741.5,238.5C 728.833,238.5 716.167,238.5 703.5,238.5C 703.5,214.167 703.5,189.833 703.5,165.5C 704.498,189.328 704.831,213.328 704.5,237.5C 716.5,237.5 728.5,237.5 740.5,237.5C 740.5,209.833 740.5,182.167 740.5,154.5 Z"/></g>
<g><path style="opacity:1" fill="#8d99b4" d="M 18.5,95.5 C 18.1686,125.005 18.5019,154.338 19.5,183.5C 19.0133,184.473 18.5133,185.473 18,186.5C 17.1694,155.997 17.3361,125.664 18.5,95.5 Z"/></g>
<g><path style="opacity:1" fill="#112561" d="M 121.5,186.5 C 126.762,186.195 131.928,186.529 137,187.5C 137.333,215.511 136.833,243.511 135.5,271.5C 134.5,244.842 134.167,218.175 134.5,191.5C 133.167,191.5 131.833,191.5 130.5,191.5C 131.999,218.198 131.499,244.865 129,271.5C 128.667,260.833 128.333,250.167 128,239.5C 127.41,250.452 126.91,261.285 126.5,272C 128.338,273.84 130.338,275.507 132.5,277C 130.428,279.148 128.594,278.982 127,276.5C 126.29,277.973 125.124,278.64 123.5,278.5C 124.358,270.868 124.691,263.201 124.5,255.5C 123.5,255.5 122.5,255.5 121.5,255.5C 121.5,232.5 121.5,209.5 121.5,186.5 Z"/></g>
<g><path style="opacity:1" fill="#bfccde" d="M 380.5,185.5 C 379.833,203.167 379.167,220.833 378.5,238.5C 378.333,220.164 378.5,201.83 379,183.5C 379.717,184.044 380.217,184.711 380.5,185.5 Z"/></g>
<g><path style="opacity:1" fill="#ccd3ee" d="M 970.5,185.5 C 969.833,203.167 969.167,220.833 968.5,238.5C 968.5,221.5 968.5,204.5 968.5,187.5C 968.343,186.127 968.51,184.793 969,183.5C 969.717,184.044 970.217,184.711 970.5,185.5 Z"/></g>
<g><path style="opacity:1" fill="#212c57" d="M 40.5,209.5 C 60.6598,210.497 80.9931,210.83 101.5,210.5C 101.5,216.5 101.5,222.5 101.5,228.5C 86.5,228.5 71.5,228.5 56.5,228.5C 70.7147,227.93 85.0481,227.097 99.5,226C 100.469,221.263 100.803,216.43 100.5,211.5C 80.1557,211.833 59.8224,211.5 39.5,210.5C 39.6236,209.893 39.9569,209.56 40.5,209.5 Z"/></g>
<g><path style="opacity:1" fill="#abb6d3" d="M 122.5,185.5 C 120.836,214.652 119.836,243.986 119.5,273.5C 119.5,243.833 119.5,214.167 119.5,184.5C 120.791,184.263 121.791,184.596 122.5,185.5 Z"/></g>
<g><path style="opacity:1" fill="#fdfefe" d="M -0.5,224.5 C 42.5048,249.333 85.1715,274.666 127.5,300.5C 84.8333,300.5 42.1667,300.5 -0.5,300.5C -0.5,275.167 -0.5,249.833 -0.5,224.5 Z"/></g>
<g><path style="opacity:1" fill="#b0b9d2" d="M 101.5,210.5 C 102.49,216.645 102.823,222.978 102.5,229.5C 83.6592,229.17 64.9925,229.503 46.5,230.5C 45.7109,230.217 45.0442,229.717 44.5,229C 48.4862,228.501 52.4862,228.334 56.5,228.5C 71.5,228.5 86.5,228.5 101.5,228.5C 101.5,222.5 101.5,216.5 101.5,210.5 Z"/></g>
<g><path style="opacity:1" fill="#afb8d2" d="M 157.5,210.5 C 157.5,216.5 157.5,222.5 157.5,228.5C 176.836,228.333 196.17,228.5 215.5,229C 214.956,229.717 214.289,230.217 213.5,230.5C 194.674,229.503 175.674,229.17 156.5,229.5C 156.177,222.978 156.51,216.645 157.5,210.5 Z"/></g>
</svg>
