<?xml version="1.0" encoding="UTF-8"?>
<svg version="1.1" xmlns="http://www.w3.org/2000/svg" width="357" height="102">
<path d="M0 0 C3.03602031 1.66051139 6.05145689 3.33172684 9.03564453 5.0847168 C9.64616669 5.44261795 10.25668884 5.8005191 10.88571167 6.16926575 C12.17591935 6.92661965 13.46513719 7.68566206 14.75341797 8.44628906 C17.31897511 9.96052967 19.88995774 11.46541735 22.46246338 12.96781921 C23.72110938 13.71332101 24.97199912 14.47207352 26.21478271 15.24372864 C29.11555966 17.03772409 31.6875105 18.45177534 34.91943359 19.61669922 C38.62707189 21.13304983 40.2557994 22.11973266 42.59033203 25.41674805 C44.4740419 32.68249921 44.25365405 40.27073477 44.13427734 47.72216797 C44.09044419 51.34497773 44.17446408 54.94954264 44.27001953 58.57104492 C44.39878152 74.57919947 44.39878152 74.57919947 41.45736694 79.19442749 C38.11088244 82.46382884 33.89660999 83.8297912 29.59033203 85.41674805 C27.27124626 86.71815598 24.97504606 88.06119103 22.70361328 89.4440918 C20.43781177 90.74943293 18.17088412 92.05282126 15.90283203 93.35424805 C14.72630576 94.03181926 13.54987317 94.70955318 12.37353516 95.38745117 C0.82965052 102.02904623 0.82965052 102.02904623 -5.40966797 101.41674805 C-8.82518296 99.97499288 -11.932971 98.0896614 -15.09716797 96.16674805 C-15.89960938 95.69495117 -16.70205078 95.2231543 -17.52880859 94.73706055 C-19.34216714 93.66634165 -21.13495465 92.56038632 -22.91137695 91.42944336 C-25.67505684 89.73981887 -28.52022465 88.49694226 -31.50366211 87.23999023 C-44.82687924 81.1880247 -44.82687924 81.1880247 -47.5428772 74.7166748 C-49.0464927 68.08524834 -48.95715347 61.49484166 -48.63256836 54.73413086 C-48.47152494 51.15244678 -48.48873491 47.60281586 -48.52880859 44.01831055 C-48.39292432 28.41864534 -48.39292432 28.41864534 -45.24456787 23.65322876 C-41.88502491 20.41211573 -37.70570557 19.01672266 -33.40966797 17.41674805 C-31.12661155 16.13732421 -28.86555649 14.81783432 -26.62841797 13.4597168 C-24.38995911 12.17260295 -22.15037519 10.88744375 -19.90966797 9.60424805 C-17.64904267 8.30643431 -15.38861814 7.00827077 -13.12841797 5.7097168 C-12.14808594 5.14792725 -11.16775391 4.5861377 -10.15771484 4.00732422 C-7.38703049 2.46404261 -7.38703049 2.46404261 -4.86474609 0.5859375 C-2.40966797 -0.58325195 -2.40966797 -0.58325195 0 0 Z M-23.47216797 20.29174805 C-24.40867187 20.84733398 -25.34517578 21.40291992 -26.31005859 21.9753418 C-27.20015625 22.51030273 -28.09025391 23.04526367 -29.00732422 23.59643555 C-29.82724854 24.08869629 -30.64717285 24.58095703 -31.49194336 25.08813477 C-33.54211786 26.28120065 -33.54211786 26.28120065 -34.40966797 28.41674805 C-30.78885917 30.59047851 -27.16235562 32.75452034 -23.53466797 34.91674805 C-22.50212891 35.53678711 -21.46958984 36.15682617 -20.40576172 36.7956543 C-19.41962891 37.38217773 -18.43349609 37.96870117 -17.41748047 38.57299805 C-16.50627441 39.11762695 -15.59506836 39.66225586 -14.65625 40.22338867 C-12.53926572 41.57311909 -12.53926572 41.57311909 -10.40966797 41.41674805 C-11.39966797 43.39674805 -12.38966797 45.37674805 -13.40966797 47.41674805 C-16.79926164 46.13476477 -19.87087051 44.66702769 -22.98388672 42.81518555 C-23.81597656 42.3253418 -24.64806641 41.83549805 -25.50537109 41.33081055 C-27.24532931 40.29758743 -28.98490769 39.26372442 -30.72412109 38.22924805 C-31.55234375 37.74198242 -32.38056641 37.2547168 -33.23388672 36.75268555 C-33.98758545 36.3045752 -34.74128418 35.85646484 -35.51782227 35.39477539 C-37.35082348 34.26367049 -37.35082348 34.26367049 -39.40966797 34.41674805 C-39.40966797 43.32674805 -39.40966797 52.23674805 -39.40966797 61.41674805 C-36.7342575 58.07248496 -34.66725004 55.37883398 -32.65966797 51.72924805 C-32.23169922 50.96225586 -31.80373047 50.19526367 -31.36279297 49.4050293 C-30.26557788 47.48365476 -30.26557788 47.48365476 -30.40966797 45.41674805 C-28.42966797 46.40674805 -26.44966797 47.39674805 -24.40966797 48.41674805 C-25.53155637 51.50194116 -26.87131427 54.28480454 -28.53466797 57.10424805 C-30.57386738 60.07244242 -30.57386738 60.07244242 -30.40966797 62.41674805 C-26.51358299 60.92770629 -22.81869778 59.17296092 -19.09716797 57.29174805 C-18.02853516 56.75291992 -16.95990234 56.2140918 -15.85888672 55.65893555 C-15.05064453 55.24901367 -14.24240234 54.8390918 -13.40966797 54.41674805 C-12.74966797 56.39674805 -12.08966797 58.37674805 -11.40966797 60.41674805 C-20.31966797 65.36674805 -20.31966797 65.36674805 -29.40966797 70.41674805 C-29.40966797 70.74674805 -29.40966797 71.07674805 -29.40966797 71.41674805 C-23.13966797 71.41674805 -16.86966797 71.41674805 -10.40966797 71.41674805 C-10.40966797 73.72674805 -10.40966797 76.03674805 -10.40966797 78.41674805 C-16.34966797 78.41674805 -22.28966797 78.41674805 -28.40966797 78.41674805 C-25.25679448 80.93904684 -22.63007699 83.00840042 -19.23779297 84.99487305 C-18.49142578 85.4331543 -17.74505859 85.87143555 -16.97607422 86.32299805 C-16.21166016 86.76643555 -15.44724609 87.20987305 -14.65966797 87.66674805 C-13.48984375 88.35510742 -13.48984375 88.35510742 -12.29638672 89.05737305 C-9.04459819 91.3191816 -9.04459819 91.3191816 -5.40966797 92.41674805 C-5.40966797 82.51674805 -5.40966797 72.61674805 -5.40966797 62.41674805 C-3.75966797 62.74674805 -2.10966797 63.07674805 -0.40966797 63.41674805 C0.25033203 63.08674805 0.91033203 62.75674805 1.59033203 62.41674805 C1.59033203 72.31674805 1.59033203 82.21674805 1.59033203 92.41674805 C10.47902856 87.58419617 10.47902856 87.58419617 19.27783203 82.60424805 C20.29232422 82.02030273 21.30681641 81.43635742 22.35205078 80.8347168 C23.09068359 80.36678711 23.82931641 79.89885742 24.59033203 79.41674805 C24.59033203 79.08674805 24.59033203 78.75674805 24.59033203 78.41674805 C18.65033203 78.41674805 12.71033203 78.41674805 6.59033203 78.41674805 C6.59033203 76.10674805 6.59033203 73.79674805 6.59033203 71.41674805 C12.20033203 71.41674805 17.81033203 71.41674805 23.59033203 71.41674805 C20.16676183 68.67789189 17.11053228 66.38800266 13.40283203 64.16674805 C12.54302734 63.6459668 11.68322266 63.12518555 10.79736328 62.58862305 C8.71240229 61.26042647 8.71240229 61.26042647 6.59033203 61.41674805 C7.58033203 59.43674805 8.57033203 57.45674805 9.59033203 55.41674805 C14.78676197 57.30897854 19.25270871 60.16585528 23.94580078 63.0534668 C25.25484375 63.72829102 25.25484375 63.72829102 26.59033203 64.41674805 C27.25033203 64.08674805 27.91033203 63.75674805 28.59033203 63.41674805 C28.08501953 62.58530273 27.57970703 61.75385742 27.05908203 60.8972168 C26.40939453 59.81053711 25.75970703 58.72385742 25.09033203 57.60424805 C24.44064453 56.52530273 23.79095703 55.44635742 23.12158203 54.3347168 C21.59033203 51.41674805 21.59033203 51.41674805 21.59033203 48.41674805 C23.24033203 47.75674805 24.89033203 47.09674805 26.59033203 46.41674805 C29.23033203 51.03674805 31.87033203 55.65674805 34.59033203 60.41674805 C34.92033203 60.41674805 35.25033203 60.41674805 35.59033203 60.41674805 C35.59033203 51.83674805 35.59033203 43.25674805 35.59033203 34.41674805 C33.30095703 35.63362305 31.01158203 36.85049805 28.65283203 38.10424805 C27.90888184 38.4995874 27.16493164 38.89492676 26.3984375 39.30224609 C21.96586377 41.66486435 17.57419933 44.08704203 13.22705078 46.60424805 C11.59033203 47.41674805 11.59033203 47.41674805 9.59033203 47.41674805 C8.60033203 45.43674805 7.61033203 43.45674805 6.59033203 41.41674805 C7.76982422 41.09577148 7.76982422 41.09577148 8.97314453 40.76831055 C13.80224385 38.96391707 18.04132372 36.41683732 22.46533203 33.79174805 C23.34447266 33.27612305 24.22361328 32.76049805 25.12939453 32.22924805 C27.28603763 30.96339231 29.43951191 29.69246398 31.59033203 28.41674805 C29.46012396 26.13138948 27.33653913 24.52123332 24.64892578 22.9362793 C23.900625 22.49477539 23.15232422 22.05327148 22.38134766 21.59838867 C21.6046875 21.14657227 20.82802734 20.69475586 20.02783203 20.22924805 C19.24730469 19.76583008 18.46677734 19.30241211 17.66259766 18.82495117 C13.86639018 16.33309379 13.86639018 16.33309379 9.59033203 15.41674805 C10.95624372 18.95918256 12.49964687 22.34302733 14.21533203 25.72924805 C14.88435547 27.05375977 14.88435547 27.05375977 15.56689453 28.4050293 C15.90462891 29.06889648 16.24236328 29.73276367 16.59033203 30.41674805 C13.59033203 32.41674805 13.59033203 32.41674805 10.59033203 32.41674805 C6.63033203 25.48674805 6.63033203 25.48674805 2.59033203 18.41674805 C2.26033203 18.41674805 1.93033203 18.41674805 1.59033203 18.41674805 C1.26033203 25.34674805 0.93033203 32.27674805 0.59033203 39.41674805 C-1.05966797 39.41674805 -2.70966797 39.41674805 -4.40966797 39.41674805 C-4.73966797 32.81674805 -5.06966797 26.21674805 -5.40966797 19.41674805 C-10.87373017 25.71348329 -10.87373017 25.71348329 -13.40966797 33.41674805 C-15.38966797 32.42674805 -17.36966797 31.43674805 -19.40966797 30.41674805 C-17.98216816 26.62625097 -16.24730255 23.14552348 -14.28466797 19.60424805 C-13.74583984 18.62842773 -13.20701172 17.65260742 -12.65185547 16.6472168 C-12.24193359 15.91116211 -11.83201172 15.17510742 -11.40966797 14.41674805 C-15.70885159 14.41674805 -19.87946972 18.12172851 -23.47216797 20.29174805 Z " fill="#242F73" transform="translate(46.40966796875,0.583251953125)"/>
<path d="M0 0 C0 3.96 0 7.92 0 12 C10.23 12 20.46 12 31 12 C31 26.19 31 40.38 31 55 C26.38 55 21.76 55 17 55 C17 45.1 17 35.2 17 25 C11.39 25 5.78 25 0 25 C0.495 33.415 0.495 33.415 1 42 C3.64 42.33 6.28 42.66 9 43 C9 46.96 9 50.92 9 55 C4.76889493 57.11555254 -0.27473704 56.14505259 -4.75 55.25 C-8.14075997 53.94586155 -9.76921688 52.83137858 -12 50 C-13.00005304 46.99984088 -13.11575585 45.02576244 -13.09765625 41.89453125 C-13.09443359 40.91162109 -13.09121094 39.92871094 -13.08789062 38.91601562 C-13.07951172 37.89185547 -13.07113281 36.86769531 -13.0625 35.8125 C-13.05798828 34.77673828 -13.05347656 33.74097656 -13.04882812 32.67382812 C-13.0370401 30.11582734 -13.02058515 27.55794267 -13 25 C-15.31 25 -17.62 25 -20 25 C-20 20.71 -20 16.42 -20 12 C-17.69 12 -15.38 12 -13 12 C-13 9.36 -13 6.72 -13 4 C-11.02144235 3.33152803 -9.04213695 2.66526889 -7.0625 2 C-5.96035156 1.62875 -4.85820312 1.2575 -3.72265625 0.875 C-1 0 -1 0 0 0 Z " fill="#242F73" transform="translate(277,27)"/>
<path d="M0 0 C1.423125 0.7425 1.423125 0.7425 2.875 1.5 C2.875 0.84 2.875 0.18 2.875 -0.5 C7.495 -0.5 12.115 -0.5 16.875 -0.5 C16.875 13.69 16.875 27.88 16.875 42.5 C11.20833333 42.5 5.54166667 42.5 -0.125 42.5 C-1.66882037 42.88734843 -3.2102606 43.28423492 -4.75 43.6875 C-11.1439338 44.98117802 -15.69985867 43.70805228 -21.13671875 40.203125 C-25.20797947 37.02805375 -28.12658555 33.6672327 -29.125 28.5 C-30.09577295 19.80266681 -29.98375611 12.77046968 -24.84765625 5.4609375 C-18.5042924 -1.75985309 -8.8805079 -3.84217893 0 0 Z M-14.125 14.5 C-16.01941323 17.59994892 -16.12823683 19.40775048 -16 23.0625 C-15.03305033 26.86123083 -14.2752631 28.22480998 -11.125 30.5 C-7.5589293 31.94570434 -6.14491217 31.50674989 -2.4375 30.25 C1.0599837 28.7388208 1.0599837 28.7388208 2.875 25.5 C3.45570527 19.68051663 3.45570527 19.68051663 1 14.5625 C-1.52954851 12.10734997 -2.43074285 11.56171175 -5.9375 11.25 C-9.59182966 11.53661409 -11.28110986 12.2090885 -14.125 14.5 Z " fill="#242F73" transform="translate(186.125,39.5)"/>
<path d="M0 0 C4.62 0 9.24 0 14 0 C14.33 10.56 14.66 21.12 15 32 C16.32 29.525 17.64 27.05 19 24.5 C23.0894199 17.66409318 23.0894199 17.66409318 27.04394531 16.28955078 C31.76566338 15.67160781 36.32748662 16.21738299 41 17 C39.19841803 22.67771289 35.40461762 26.90093629 31.72460938 31.47265625 C28.87027805 35.09603124 28.87027805 35.09603124 27.7890625 39.45703125 C29.68383973 43.43606343 32.33525886 46.74338405 35.0625 50.1875 C36.18255881 51.61522536 37.29866119 53.04606637 38.41015625 54.48046875 C38.90652588 55.10848389 39.40289551 55.73649902 39.91430664 56.38354492 C41 58 41 58 41 60 C35.97011017 60.91637669 30.90550987 61.74853426 26 60 C21.17060053 56.02819438 18.06935985 50.36021263 15 45 C14.67 49.95 14.34 54.9 14 60 C9.38 60 4.76 60 0 60 C0 40.2 0 20.4 0 0 Z " fill="#242F73" transform="translate(316,22)"/>
<path d="M0 0 C4.62 0 9.24 0 14 0 C14.33 10.56 14.66 21.12 15 32 C16.32 29.525 17.64 27.05 19 24.5 C23.0894199 17.66409318 23.0894199 17.66409318 27.04394531 16.28955078 C31.76566338 15.67160781 36.32748662 16.21738299 41 17 C39.3825067 22.19031078 36.14487963 26.06772586 32.875 30.3125 C32.31167969 31.05306641 31.74835938 31.79363281 31.16796875 32.55664062 C29.78365711 34.37501609 28.39425774 36.18924674 27 38 C29.82096882 43.2255089 33.01042516 47.77169133 36.75 52.375 C42 58.88072519 42 58.88072519 42 60 C28.00641614 61.52842542 28.00641614 61.52842542 23.26171875 57.9140625 C21.27309422 55.35993458 19.61053723 52.80462948 18 50 C17.01 48.68 16.02 47.36 15 46 C14.67 50.62 14.34 55.24 14 60 C9.38 60 4.76 60 0 60 C0 40.2 0 20.4 0 0 Z " fill="#242F73" transform="translate(116,22)"/>
<path d="M0 0 C4.96457427 3.42792033 7.04452255 7.07269141 8.625 12.8125 C8.85205078 16.24755859 8.85205078 16.24755859 8.8203125 19.9609375 C8.8174826 20.61832916 8.81465271 21.27572083 8.81173706 21.95303345 C8.80063447 24.03138233 8.77554986 26.10928366 8.75 28.1875 C8.73995731 29.60546248 8.73083373 31.02343179 8.72265625 32.44140625 C8.7024379 35.89874429 8.6632735 39.35512735 8.625 42.8125 C4.005 42.8125 -0.615 42.8125 -5.375 42.8125 C-5.41238281 40.89824219 -5.44976562 38.98398438 -5.48828125 37.01171875 C-5.55392726 34.50779245 -5.62037506 32.00388709 -5.6875 29.5 C-5.71005859 28.23736328 -5.73261719 26.97472656 -5.75585938 25.67382812 C-5.8090332 23.86108398 -5.8090332 23.86108398 -5.86328125 22.01171875 C-5.88946533 20.89627686 -5.91564941 19.78083496 -5.94262695 18.6315918 C-6.15499975 15.8193996 -6.15499975 15.8193996 -7.71948242 13.94848633 C-10.31309284 12.1687976 -12.32316515 12.43102064 -15.375 12.8125 C-17.15060516 13.89381314 -17.15060516 13.89381314 -18.375 15.8125 C-18.88164617 18.71337655 -18.88164617 18.71337655 -18.88671875 22.01171875 C-18.92216797 23.22021484 -18.95761719 24.42871094 -18.99414062 25.67382812 C-19.02797852 27.5677832 -19.02797852 27.5677832 -19.0625 29.5 C-19.09666016 30.77423828 -19.13082031 32.04847656 -19.16601562 33.36132812 C-19.24860195 36.51140643 -19.31347391 39.66193999 -19.375 42.8125 C-23.995 42.8125 -28.615 42.8125 -33.375 42.8125 C-33.375 28.6225 -33.375 14.4325 -33.375 -0.1875 C-28.755 -0.1875 -24.135 -0.1875 -19.375 -0.1875 C-19.375 0.4725 -19.375 1.1325 -19.375 1.8125 C-18.59125 1.3175 -17.8075 0.8225 -17 0.3125 C-11.21526307 -2.08118425 -5.89934069 -2.07569395 0 0 Z " fill="#242F73" transform="translate(244.375,39.1875)"/>
<path d="M0 0 C2.81972931 2.36493426 2.97850831 3.8280665 3.4375 7.5 C3 11 3 11 1.5 13.4375 C-1.53037069 15.33148168 -3.55830934 15.64334247 -7.08984375 15.4453125 C-9 15 -9 15 -11.5625 12.9375 C-13.43625505 9.10852228 -13.12962701 7.06665724 -12 3 C-8.52941144 -1.52685464 -5.36496865 -1.22358934 0 0 Z " fill="#242F73" transform="translate(306,21)"/>
<path d="M0 0 C2.375 1.0625 2.375 1.0625 4 3 C4.87880397 6.45244415 5.35986231 8.89042453 4.25 12.3125 C3 14 3 14 0 16 C-3.68722891 16.4809429 -5.56074794 16.22917499 -8.875 14.5 C-11.46043632 11.45831021 -11.69010681 9.79992767 -11.4140625 5.90625 C-11 4 -11 4 -9.4375 1.5 C-6.0761612 -0.56851618 -3.88040089 -0.48505011 0 0 Z " fill="#E3050E" transform="translate(48,44)"/>
</svg>
